# xmcd
#
# Track frame offsets:
#	150
#	19857
#	36340
#	70102
#	87817
#	114590
#	136085
#	155687
#	157992
#	189990
#	212102
#
# Disc length: 3245 seconds
#
# Revision: 1
# Processed by: cddbd v1.5PL3 Copyright (c) Steve Scherf et al.
# Submitted via: audiograbber 1.82.02
#
DISCID=8c0cab0b
DTITLE=Gregor Hilden - Blue hour
DYEAR=2004
DGENRE=Blues
TTITLE0=Flying home
TTITLE1=Who's makin' love
TTITLE2=Joy and pain
TTITLE3=I loved another woman
TTITLE4=Inner city blues
TTITLE5=Love and happiness
TTITLE6=Milestones
TTITLE7=Pre-jam
TTITLE8=Jam
TTITLE9=Blue hour
TTITLE10=Fever
EXTD=
EXTT0=
EXTT1=
EXTT2=
EXTT3=
EXTT4=
EXTT5=
EXTT6=
EXTT7=
EXTT8=
EXTT9=
EXTT10=
PLAYORDER=
